<svg xmlns="http://www.w3.org/2000/svg" width="18" height="18" fill="none">
    <path stroke="#667085" stroke-linecap="round" stroke-linejoin="round" stroke-width="2"
          d="M5.625 2.25h5.325c1.6802 0 2.5202 0 3.162.32698.5644.28762 1.0234.74656 1.311 1.31105.327.64174.327 1.48181.327 3.16197v5.325M4.65 15.75h6.075c.8401 0 1.2602 0 1.581-.1635.2822-.1438.5117-.3733.6555-.6555.1635-.3208.1635-.7409.1635-1.581V7.275c0-.84008 0-1.26012-.1635-1.58098-.1438-.28225-.3733-.51172-.6555-.65553-.3208-.16349-.7409-.16349-1.581-.16349H4.65c-.84008 0-1.26012 0-1.58098.16349-.28225.14381-.51172.37328-.65553.65553C2.25 6.01488 2.25 6.43492 2.25 7.275v6.075c0 .8401 0 1.2602.16349 1.581.14381.2822.37328.5117.65553.6555.32086.1635.7409.1635 1.58098.1635Z"/>
</svg>