<svg xmlns="http://www.w3.org/2000/svg" width="163" height="156" fill="none">
    <g clip-path="url(#a)">
        <path fill="#D1FADF"
              d="M163 78c0-43.0782-36.489-78-81.5-78C36.4888 0 0 34.9218 0 78c0 43.078 36.4888 78 81.5 78 45.011 0 81.5-34.922 81.5-78Z"/>
        <path fill="#12B76A" fill-rule="evenodd"
              d="M116.113 48.0352 67.4844 92.9503 54.5801 79.755c-2.3769-2.145-6.1125-2.2748-8.8289-.4547-2.6487 1.8849-3.3961 5.1999-1.7661 7.8647l15.2813 23.79c1.4943 2.21 4.075 3.575 6.9955 3.575 2.7845 0 5.4332-1.365 6.9275-3.575 2.445-3.055 49.1036-56.2898 49.1036-56.2898 6.113-5.9799-1.29-11.2449-6.18-6.6952v.0652Z"
              clip-rule="evenodd"/>
    </g>
    <defs>
        <clipPath id="a">
            <path fill="#fff" d="M0 0h163v156H0z"/>
        </clipPath>
    </defs>
</svg>